<?xml version="1.0" encoding="utf-8"?><svg xmlns="http://www.w3.org/2000/svg" xmlns:xlink="http://www.w3.org/1999/xlink" width="1533" height="751" preserveAspectRatio="xMidYMid" viewBox="0 0 1533 751" style="z-index:1;margin-right:-2px;display:block;background-repeat-y:initial;background-repeat-x:initial;animation-play-state:paused" ><g transform="" style="animation-play-state:paused" ><linearGradient id="lg-0.30447986946003547" x1="0" x2="1" y1="0" y2="0" style="animation-play-state:paused" ><stop stop-color="#ff00ff" offset="0" style="animation-play-state:paused" ></stop>

  
<stop stop-color="#00ffff" offset="1" style="animation-play-state:paused" ></stop></linearGradient>
<path fill="url(#lg-0.30447986946003547)" opacity="0.17" d="M 0 0 L 0 620.186 Q 255.5 600.388 511 551.532 T 1022 461.025 T 1533 262.43 L 1533 0 Z" style="opacity:0.17;animation-play-state:paused" ></path>
<path fill="url(#lg-0.30447986946003547)" opacity="0.17" d="M 0 0 L 0 694.158 Q 255.5 622.958 511 600.297 T 1022 409.669 T 1533 329.892 L 1533 0 Z" style="opacity:0.17;animation-play-state:paused" ></path>
<path fill="url(#lg-0.30447986946003547)" opacity="0.17" d="M 0 0 L 0 690.139 Q 255.5 602.143 511 565.911 T 1022 469.807 T 1533 267.853 L 1533 0 Z" style="opacity:0.17;animation-play-state:paused" ></path>
<path fill="url(#lg-0.30447986946003547)" opacity="0.17" d="M 0 0 L 0 728.704 Q 255.5 614.912 511 578.487 T 1022 436.63 T 1533 337.506 L 1533 0 Z" style="opacity:0.17;animation-play-state:paused" ></path></g></svg>